<?xml version="1.0" standalone="no"?>
<!DOCTYPE svg PUBLIC "-//W3C//DTD SVG 20010904//EN"
 "http://www.w3.org/TR/2001/REC-SVG-20010904/DTD/svg10.dtd">
<svg version="1.0" xmlns="http://www.w3.org/2000/svg"
 width="700.000000pt" height="700.000000pt" viewBox="0 0 700.000000 700.000000"
 preserveAspectRatio="xMidYMid meet">
<metadata>
Created by potrace 1.14, written by Peter Selinger 2001-2017
</metadata>
<g transform="translate(0.000000,700.000000) scale(0.100000,-0.100000)"
fill="#000000" stroke="none">
<path d="M3298 6705 c-2 -2 -37 -6 -80 -9 -42 -4 -91 -9 -110 -11 -18 -3 -53
-8 -78 -11 -25 -3 -76 -12 -115 -19 -38 -8 -81 -16 -95 -19 -123 -21 -391
-106 -547 -171 -76 -33 -288 -135 -348 -169 -471 -263 -909 -693 -1186 -1161
-212 -360 -367 -799 -415 -1180 -2 -22 -7 -51 -9 -65 -20 -123 -26 -496 -12
-675 5 -54 10 -102 12 -105 2 -3 6 -32 9 -65 4 -33 9 -67 11 -75 2 -8 7 -34
10 -57 10 -71 64 -283 101 -398 114 -351 315 -729 525 -989 159 -197 307 -350
459 -476 41 -34 84 -69 95 -79 119 -100 389 -268 575 -357 171 -81 253 -115
400 -162 199 -63 349 -100 475 -117 22 -3 58 -8 80 -12 22 -3 51 -7 65 -9 185
-25 606 -25 760 0 14 3 48 7 75 11 277 33 635 141 930 281 146 69 418 230 504
299 9 8 63 51 121 96 123 97 356 326 462 455 250 304 440 643 563 1006 39 115
91 302 101 363 3 22 8 43 10 46 3 5 15 74 29 174 4 22 8 51 10 64 26 155 26
609 0 781 -2 14 -7 50 -10 80 -4 30 -8 57 -10 60 -2 3 -6 24 -9 46 -16 103
-58 269 -108 424 -383 1178 -1443 2047 -2668 2185 -19 3 -55 7 -80 10 -47 7
-496 15 -502 10z m569 -606 c76 -10 89 -13 168 -29 28 -6 59 -12 70 -14 73
-14 277 -81 396 -129 415 -170 816 -477 1079 -826 14 -18 34 -45 46 -59 89
-116 228 -364 297 -532 79 -190 149 -442 171 -610 3 -25 8 -55 10 -66 3 -12 7
-64 11 -117 l7 -95 -54 -43 c-196 -156 -490 -300 -703 -344 -175 -37 -207 -40
-405 -40 -178 0 -225 4 -335 25 -27 6 -59 12 -71 14 -44 9 -172 49 -244 78
-592 235 -1000 748 -1104 1393 -15 91 -16 429 -2 505 23 121 30 154 53 235 63
222 165 420 316 615 l49 62 86 -6 c48 -4 119 -12 159 -17z m-1004 -66 c-4 -10
-20 -44 -36 -77 -167 -346 -246 -781 -214 -1186 40 -497 239 -976 561 -1345
317 -364 678 -592 1171 -739 258 -77 704 -103 955 -56 25 5 65 11 90 15 62 9
187 41 298 76 87 28 295 112 317 129 6 4 18 10 27 13 20 7 20 7 -26 -145 -97
-319 -291 -669 -511 -923 -233 -270 -497 -477 -810 -635 -208 -106 -483 -202
-665 -234 -19 -3 -44 -8 -55 -10 -11 -2 -42 -7 -70 -10 -27 -4 -61 -8 -75 -11
-100 -18 -365 -24 -524 -11 -234 18 -570 93 -721 160 -16 8 -41 17 -55 21 -42
12 -303 141 -366 181 -88 55 -167 107 -184 121 -176 138 -240 193 -339 293
-353 357 -597 810 -699 1300 -11 52 -23 118 -27 145 -3 28 -8 57 -10 65 -23
90 -23 545 1 664 2 11 7 41 10 66 3 25 15 86 25 135 11 50 22 101 25 115 11
56 70 232 109 330 99 246 234 473 414 694 53 66 249 268 302 311 13 11 47 38
74 61 271 221 657 415 990 497 11 2 21 5 22 6 1 0 -1 -7 -4 -16z"/>
</g>
</svg>
